<svg width="20" height="20" viewBox="0 0 20 20" fill="none" xmlns="http://www.w3.org/2000/svg">
<path fill-rule="evenodd" clip-rule="evenodd" d="M6.93317 6.21355C7.15841 7.49136 7.8987 8.93496 9.17604 10.1651C10.4534 11.3952 11.9238 12.0807 13.2092 12.2576C14.4965 12.4349 15.46 12.1003 16.0406 11.4975L18.5616 13.9254C17.0151 15.5312 14.8246 16.0131 12.7318 15.7249C10.6371 15.4365 8.50161 14.3747 6.74818 12.6861C4.99476 10.9975 3.85335 8.90342 3.48631 6.8211C3.11961 4.74067 3.51869 2.53357 5.06519 0.927734L7.5862 3.35559C7.0057 3.95837 6.70761 4.93385 6.93317 6.21355Z" fill="#202124"/>
<path d="M8.94192 3.0279L6.75623 0.802786C6.32089 0.359592 5.60869 0.353226 5.1655 0.788568C4.88113 1.0679 4.76583 1.47687 4.86242 1.86361L5.3957 3.99884C5.49777 4.40753 5.70725 4.7815 6.00244 5.08202L6.41902 5.50611C7.10335 6.20279 8.22289 6.2128 8.91957 5.52846C9.61625 4.84412 9.62626 3.72458 8.94192 3.0279Z" fill="#202124"/>
<path d="M16.1958 10.2504L18.4013 12.4559C18.8406 12.8952 18.8406 13.6074 18.4013 14.0467C18.1194 14.3286 17.7095 14.4402 17.3236 14.3402L15.1932 13.7878C14.7855 13.6821 14.4134 13.4693 14.1155 13.1714L13.6952 12.7511C13.0046 12.0605 13.0046 10.9409 13.6952 10.2504C14.3857 9.55987 15.5053 9.55987 16.1958 10.2504Z" fill="#202124"/>
</svg>